<?xml version="1.0" encoding="utf-8"?>
<!-- Generator: Adobe Illustrator 16.0.0, SVG Export Plug-In . SVG Version: 6.00 Build 0)  -->
<!DOCTYPE svg PUBLIC "-//W3C//DTD SVG 1.1//EN" "http://www.w3.org/Graphics/SVG/1.1/DTD/svg11.dtd">
<svg version="1.1" id="Layer_1" xmlns="http://www.w3.org/2000/svg" xmlns:xlink="http://www.w3.org/1999/xlink" x="0px" y="0px"
	 width="566.93px" height="566.93px" viewBox="0 0 566.93 566.93" enable-background="new 0 0 566.93 566.93" xml:space="preserve">
<path fill="#FFCF01" d="M279.494,161.627c47.562,0,86.118,99.117,86.118,146.678c0,47.562-38.556,86.118-86.118,86.118
	c-47.561,0-86.117-38.556-86.117-86.118C193.377,260.745,231.932,161.627,279.494,161.627"/>
<path d="M344.683,277.879c0.656-2.782,0.21-5.405-1.259-7.385c-1.502-2.028-3.962-3.247-6.926-3.436
	c-0.316-0.02-0.627-0.03-0.934-0.03c-4.239,0-7.807,1.856-10.906,5.673c-2.258,2.78-3.712,5.962-5.119,9.04
	c-0.474,1.037-0.964,2.109-1.474,3.137c-0.896,1.81-1.736,3.672-2.549,5.473c-1.56,3.454-3.172,7.025-5.202,10.262
	c-1.779,2.838-3.695,4.266-6.212,4.625c-0.333,0.048-0.653,0.073-0.954,0.073c-0.737,0-1.731-0.148-2.275-0.851
	c-0.483-0.623-0.571-1.658-0.248-2.914c0.396-1.536,1.102-3.086,1.783-4.584l0.267-0.588c0.897-1.987,1.835-4,2.742-5.946
	c1.613-3.461,3.28-7.04,4.794-10.628c1.739-4.123,0.864-8.642-2.128-10.99c-1.479-1.16-3.505-1.798-5.705-1.798
	c-2.073,0-4.176,0.57-5.92,1.605c-1.317,0.782-2.409,1.79-3.511,2.878c-1.633-2.971-4.343-4.474-8.081-4.474
	c-0.339,0-0.692,0.012-1.051,0.037c-1.744,0.119-3.162,0.828-4.534,1.514l-0.289,0.144c-0.004,0.002-0.008,0.004-0.011,0.006
	c-0.656-0.674-1.44-1.269-2.398-1.269c-1.68,0-2.53,1.807-2.938,2.676c-0.756,1.607-1.495,3.222-2.234,4.836
	c-0.992,2.166-2.017,4.405-3.064,6.582c-1.044,2.169-2.026,4.4-2.976,6.558c-1.853,4.209-3.769,8.562-6.186,12.531
	c-1.788,2.936-3.755,4.368-6.377,4.643c-0.206,0.022-0.409,0.033-0.602,0.033c-0.731,0-1.725-0.155-2.305-0.89
	c-0.477-0.604-0.591-1.503-0.33-2.601c0.289-1.215,0.786-2.394,1.234-3.387c2.165-4.801,4.391-9.674,6.544-14.386l1.888-4.133
	c0.41-0.897,0.821-1.794,1.233-2.69c0.77-1.676,1.539-3.351,2.295-5.033c0.822-1.831,0.334-3.477-1.273-4.296
	c-0.463-0.235-0.93-0.355-1.39-0.355c-1.603,0-2.486,1.409-2.777,1.872c-0.212,0.338-0.36,0.68-0.491,0.981
	c-0.04,0.09-0.078,0.179-0.119,0.268c-0.724,1.583-1.456,3.162-2.188,4.741c-1.687,3.642-3.433,7.409-5.052,11.164
	c-0.609,1.412-1.3,2.833-1.969,4.209c-1.474,3.035-2.999,6.172-3.857,9.589c-0.726,2.894-0.279,5.59,1.257,7.593
	c1.556,2.026,4.087,3.171,7.125,3.219l0.193,0.001c3.009,0,5.763-1.108,8.42-3.387c3.902-3.348,5.972-7.777,7.974-12.062
	c0.248-0.532,0.497-1.063,0.749-1.594c0.84-1.768,1.618-3.585,2.37-5.344c1.604-3.748,3.262-7.625,5.556-11.034
	c1.938-2.88,4.093-4.443,6.781-4.919c0.28-0.049,0.555-0.074,0.815-0.074c0.903,0,1.641,0.294,2.133,0.85
	c0.541,0.608,0.768,1.528,0.641,2.59c-0.145,1.205-0.68,2.355-1.245,3.572l-0.263,0.568c-1.75,3.832-3.504,7.661-5.257,11.491
	c-2.147,4.688-4.295,9.379-6.437,14.07c-0.045,0.102-0.097,0.203-0.149,0.309c-0.34,0.675-1.375,2.729,0.791,3.986
	c0.489,0.283,0.996,0.429,1.505,0.429c1.456,0,2.401-1.145,2.909-1.759c0.443-0.534,0.712-1.139,0.949-1.672
	c0.049-0.107,0.097-0.217,0.146-0.323c0.635-1.367,1.259-2.741,1.882-4.114c1.254-2.766,2.552-5.625,3.923-8.376
	c0.998-2.001,1.897-4.072,2.767-6.075c1.642-3.781,3.338-7.69,5.713-11.109c1.704-2.455,3.778-3.876,6.341-4.344
	c0.297-0.054,0.586-0.081,0.86-0.081c0.936,0,1.69,0.311,2.182,0.899c0.556,0.666,0.748,1.666,0.54,2.814
	c-0.223,1.227-0.754,2.369-1.314,3.578c-0.165,0.356-0.331,0.713-0.489,1.073c-0.931,2.112-1.956,4.237-2.948,6.293
	c-1.815,3.762-3.692,7.652-5.111,11.704c-1.327,3.788-0.833,7.041,1.43,9.406c1.68,1.758,3.843,2.648,6.426,2.648
	c1.009,0,2.063-0.13,3.227-0.397c2.596-0.6,4.533-2.065,6.311-3.653c2.042,2.586,5.056,4.088,8.335,4.088
	c2.196,0,4.423-0.667,6.444-1.928c4.061-2.535,6.281-6.408,7.762-9.499c2.893-6.036,5.762-12.229,8.431-18.019
	C343.919,280.488,344.377,279.174,344.683,277.879 M320.295,305.337c-1.265,0-2.242-0.414-2.753-1.164
	c-0.498-0.732-0.521-1.771-0.066-2.925c3.264-8.286,7.035-16.327,11.209-23.901c1.437-2.608,3.526-4.127,6.212-4.516
	c0.241-0.035,0.48-0.053,0.713-0.053c1.006,0,1.882,0.328,2.468,0.923c0.5,0.507,0.759,1.182,0.747,1.953
	c0.023,1.296-0.531,2.491-1.119,3.756l-0.03,0.066c-2.818,6.067-5.705,12.194-8.421,17.95c-1.065,2.258-2.476,4.81-4.86,6.627
	c-1.078,0.821-2.37,1.24-3.946,1.281L320.295,305.337z"/>
<path d="M408.449,295.22c-0.435-0.259-0.894-0.391-1.365-0.391c-0.847,0-1.639,0.44-2.171,1.207
	c-0.366,0.529-0.646,1.074-0.917,1.601c-0.075,0.147-0.15,0.292-0.227,0.438c-1.532,2.896-3.031,5.396-5.861,6.632
	c-1.063,0.463-1.961,0.69-2.743,0.69c-0.853,0-1.553-0.267-2.204-0.834c-0.968-0.848-0.987-1.911-0.073-4.066
	c1.548-3.653,3.214-7.337,4.825-10.9l0.965-2.134c2.267-5.024,4.498-9.918,6.629-14.548c0.517-1.121,1.684-3.654-0.858-4.974
	c-0.515-0.267-1.024-0.402-1.515-0.402c-1.546,0-2.352,1.194-2.881,2.221c-2.087-1.819-4.466-2.772-6.967-2.772
	c-2.249,0-4.512,0.755-6.727,2.243c-3.651,2.454-5.766,6.083-7.506,9.64c-1.195,2.442-2.346,4.948-3.458,7.371
	c-2.028,4.417-4.125,8.983-6.545,13.269c-1.526,2.704-3.429,5.271-6.979,5.73c-1.236,0.16-2.09,0.592-2.611,1.319
	c-0.314,0.44-0.643,1.198-0.417,2.318c0.294,1.458,1.292,2.295,2.736,2.295c0.43,0,0.849-0.067,1.219-0.129l0.121-0.02
	c2.999-0.485,5.301-2.118,7.34-3.959c1.744,2.677,4.34,4.127,7.46,4.127c3.056,0,6.331-1.381,9.556-4.012
	c1.133,1.851,2.658,2.99,4.701,3.541c0.778,0.21,1.614,0.316,2.484,0.316c6.98,0,14.812-6.521,15.518-12.921
	C410.114,296.885,409.6,295.912,408.449,295.22 M396.779,275.544c0.041,1.297-0.508,2.5-1.089,3.773l-0.121,0.268l-0.782,1.724
	c-2.361,5.208-4.802,10.594-7.284,15.847c-1.127,2.387-2.627,5.078-5.202,6.938c-1.074,0.778-2.312,1.187-3.78,1.246
	c-0.081,0.004-0.16,0.005-0.239,0.005c-1.264,0-2.287-0.437-2.807-1.199c-0.484-0.71-0.52-1.692-0.098-2.767
	c3.326-8.476,7.131-16.59,11.311-24.118c1.438-2.592,3.54-4.085,6.246-4.441c0.21-0.027,0.42-0.041,0.625-0.041
	C395.448,272.78,396.773,273.917,396.779,275.544"/>
<path d="M348.812,316.776c-2.559-0.308-3.076-2.012-3.77-4.999c-0.056-0.24-0.085-0.41-0.1-0.528
	c0.086-0.009,0.198-0.015,0.344-0.015c0.059,0,0.119,0.001,0.181,0.003c0.201,0.006,0.397,0.01,0.596,0.01
	c5.455,0,10.711-2.497,14.419-6.847c3.758-4.408,5.407-10.087,4.525-15.58c-0.395-2.468-1.133-4.814-1.847-7.083
	c-0.157-0.499-0.314-0.998-0.468-1.498c-1.264-4.122-2.157-8.549-0.152-12.994l0.118-0.255c0.374-0.807,0.888-1.912,0.451-3.041
	c-0.271-0.698-0.834-1.232-1.678-1.587c-0.448-0.189-0.89-0.285-1.314-0.285c-1.921,0-2.756,1.812-3.157,2.683
	c-0.705,1.529-1.419,3.055-2.133,4.581c-1.487,3.177-3.022,6.461-4.456,9.736c-1.15,2.629-2.41,5.277-3.628,7.839
	c-2.39,5.026-4.855,10.21-6.703,15.656c-0.312-0.097-0.659-0.172-1.034-0.172c-0.606,0-1.481,0.204-2.208,1.176
	c-0.529,0.709-0.751,1.572-0.606,2.37c0.133,0.734,0.558,1.364,1.197,1.774c1.339,0.862,1.481,2.075,1.617,4.148
	c0.159,2.398,0.793,4.541,1.89,6.37c1.683,2.807,4.028,4.284,6.976,4.386c0.062,0.002,0.123,0.004,0.184,0.004
	c1.752,0,2.944-0.945,3.188-2.53c0.135-0.875-0.04-1.662-0.506-2.274C350.29,317.236,349.624,316.873,348.812,316.776
	 M345.402,305.354c-0.002-0.181,0.04-0.584,0.295-1.397c1.393-4.45,3.507-8.726,5.552-12.862c1.069-2.166,2.175-4.403,3.178-6.659
	c0.599-1.35,1.23-2.669,1.943-4.146c0.3,0.971,0.616,1.912,0.928,2.839c0.808,2.402,1.571,4.671,1.865,7.01
	c0.472,3.737-0.515,7.358-2.777,10.195c-2.278,2.857-5.614,4.638-9.393,5.016c-0.383,0.037-0.7,0.057-0.972,0.057
	C345.701,305.405,345.508,305.376,345.402,305.354"/>
<path d="M264.339,263.395c0.137,0.015,0.274,0.022,0.412,0.022c1.155,0,2.348-0.533,3.274-1.463
	c0.949-0.955,1.489-2.192,1.482-3.396c-0.014-2.459-1.614-3.656-3.194-3.751c-0.109-0.004-0.172-0.005-0.235-0.005
	c-2.91,0-5.102,1.924-5.212,4.573C260.772,261.643,262.07,263.145,264.339,263.395"/>
<path d="M227.47,225.021c-0.482,0-0.972-0.107-1.434-0.335c-1.61-0.793-2.272-2.741-1.479-4.352
	c10.98-22.293,34.025-59.693,64.998-59.693c18.767,0,37.61,14.119,54.492,40.832c0.959,1.518,0.506,3.525-1.011,4.484
	c-1.519,0.958-3.525,0.506-4.483-1.011c-10.9-17.247-28.248-37.805-48.998-37.805c-20.053,0-41.618,20.435-59.167,56.066
	C229.823,224.354,228.669,225.021,227.47,225.021"/>
<path d="M239.377,383.818c-0.656,0-1.319-0.198-1.893-0.61c-11.46-8.229-20.93-19.189-27.386-31.696
	c-0.824-1.595-0.199-3.555,1.397-4.379c1.596-0.823,3.556-0.197,4.378,1.397c5.988,11.6,14.773,21.765,25.402,29.397
	c1.458,1.047,1.792,3.077,0.745,4.536C241.385,383.346,240.388,383.818,239.377,383.818"/>
<path d="M359.459,242.642c-1.291,0-2.512-0.774-3.02-2.047c-4.14-10.379-8.787-20.092-13.811-28.87
	c-0.892-1.558-0.352-3.543,1.206-4.435c1.557-0.89,3.544-0.351,4.435,1.206c5.175,9.041,9.955,19.03,14.207,29.691
	c0.665,1.667-0.147,3.558-1.814,4.223C360.268,242.567,359.859,242.642,359.459,242.642"/>
<path d="M367.304,334.969c-8.149-9.362-26.902-14.022-91.937-6.353c-2.681,0.317-5.372,0.646-8.041,0.972
	c-10.816,1.319-22.538,2.746-30.729,2.861l-2.382-0.002c-2.117-0.046-3.909-0.211-5.275-0.527c-0.068-0.017-0.131-0.034-0.196-0.052
	c-0.215-0.054-0.418-0.11-0.609-0.169c-0.007-0.002-0.014-0.003-0.021-0.005c-1.546-0.47-4.903-3.329-3.607-10.463l0.007-0.005
	c0.368-2.039,1.046-4.146,2.058-6.354c2.482-5.42,9.67-19.869,12.171-25.28c1.566-3.392,3.132-6.781,4.694-10.173
	c0.914-1.985,1.836-3.966,2.758-5.947c2.316-4.974,4.71-10.117,6.93-15.245c1.659-3.831,1.603-7.842-0.153-11.003
	c-1.629-2.933-4.509-4.845-8.109-5.382c-1.071-0.16-2.146-0.241-3.195-0.241c-3.656,0-7.135,0.965-10.338,2.868
	c-2.229,1.324-4.125,3.033-5.935,4.74c-2.146-5.46-5.253-7.523-11.095-7.523c-0.335,0-0.68,0.007-1.036,0.02
	c-1.82,0.067-3.674,0.451-5.835,1.209c-3.634,1.275-6.9,3.44-10.301,6.873c-0.073-3.526-0.65-6.619-2.326-9.53
	c-4.694-8.152-12.01-12.286-21.745-12.286h-0.002l-0.188,0.001c-9.548,0.053-16.965,4.435-21.447,12.672
	c-3.48,6.393-3.221,13.012,0.748,19.141c3.44,5.312,8.559,8.119,14.803,8.119c0.677,0,1.376-0.032,2.079-0.097
	c5.597-0.517,9.54-3.127,11.716-7.757c0.866-1.843,0.277-3.594-1.5-4.462c-0.419-0.204-0.843-0.308-1.261-0.308
	c-1.513,0-2.368,1.325-2.648,1.76c-2.206,3.421-4.727,5.015-7.933,5.015c-1.198,0-2.53-0.229-3.957-0.679
	c-3.425-1.081-6.15-3.678-7.478-7.125c-1.459-3.785-1.087-8.019,1.019-11.616c3.104-5.302,9.402-8.728,16.047-8.727
	c1.647,0,3.26,0.217,4.792,0.646c7.985,2.233,12.287,6.781,13.15,13.904c0.484,3.993-0.299,8.275-2.33,12.727
	c-3.884,8.517-7.855,17.167-11.696,25.533l-3.449,7.516c-0.582,1.269-1.168,2.535-1.754,3.801c-1.36,2.941-2.767,5.982-4.101,9
	c-0.035,0.079-0.073,0.161-0.113,0.246c-0.338,0.714-1.364,2.89,0.821,4.09c0.484,0.268,0.992,0.402,1.51,0.402
	c1.121,0,2.181-0.633,2.986-1.782c0.606-0.863,1.067-1.814,1.401-2.546c2.497-5.472,4.99-10.945,7.483-16.419
	c3.87-8.496,7.739-16.991,11.625-25.479c1.673-3.656,3.839-6.926,6.437-9.72c5.048-5.427,9.423-7.799,14.629-7.931
	c0.061-0.002,0.122-0.002,0.182-0.002c1.47,0,2.712,0.466,3.592,1.347c0.951,0.955,1.451,2.342,1.447,4.013
	c-0.005,1.986-0.846,3.795-1.737,5.71l-0.076,0.163l-4.22,9.081c-5.716,12.299-11.627,25.017-17.409,37.541
	c-0.08,0.176-0.207,0.396-0.341,0.628c-0.491,0.849-1.162,2.012-0.799,3.244c0.213,0.726,0.727,1.302,1.527,1.714
	c0.535,0.275,1.07,0.415,1.589,0.415c1.902,0,2.874-1.755,3.518-2.914c0.082-0.147,0.163-0.293,0.243-0.433
	c0.205-0.353,0.359-0.713,0.495-1.032c0.057-0.133,0.114-0.267,0.175-0.398c1.351-2.93,2.695-5.862,4.04-8.795
	c3.114-6.79,6.334-13.813,9.579-20.677c0.892-1.889,1.739-3.83,2.556-5.707c2.049-4.702,4.168-9.564,7.136-13.818
	c3.819-5.474,8.259-8.705,13.575-9.88c0.799-0.176,1.59-0.265,2.351-0.265c2.226,0,3.997,0.737,4.989,2.076
	c1.038,1.402,1.187,3.457,0.43,5.942c-0.28,0.92-0.629,1.996-1.095,3.003c-6.592,14.234-18.011,37.768-24.694,52.127
	c-2.134,4.585-3.289,8.935-3.53,13.3c-0.228,4.113,0.819,7.521,3.027,9.856c0.69,0.729,1.476,1.329,2.342,1.795
	c0.098,0.085,0.192,0.173,0.303,0.245c5.889,3.84,20.712,2.261,44.413-0.632c2.661-0.325,5.343-0.652,8.016-0.969
	c66.274-7.818,81.024-2.197,86.708,4.332c1.844,2.12,2.144,5.292,0.889,9.433c-7.32,24.155-41.952,45.347-74.112,45.347
	c-14.079,0-27.987-3.584-40.224-10.364c-1.451-0.805-3.276-0.278-4.078,1.17c-0.803,1.45-0.279,3.276,1.17,4.079
	c13.124,7.271,28.039,11.115,43.133,11.115c35.137,0,71.705-22.717,79.853-49.607C371.768,342.299,369.565,337.568,367.304,334.969"
	/>
<path d="M246.851,352.183c1.491,0,2.687-0.798,2.687-2.336c0-1.378-0.959-2.318-2.545-2.318h-1.452h-1.263v6.648h1.263h0.199v-1.994
	H246.851z M245.74,348.849h1.13c0.049,0,0.086,0.015,0.134,0.018c0.646,0.044,1.053,0.378,1.053,0.989
	c0,0.556-0.392,0.965-1.053,1.009c-0.038,0.003-0.066,0.016-0.106,0.016h-1.158V348.849z"/>
<path d="M265.134,354.176l0.608-1.491h1.264h1.547l0.608,1.491h1.263h0.266l-2.849-6.694h-0.085h-1.264l-2.849,6.694h1.264H265.134z
	 M267.779,350.781l0.252,0.613h-0.503h-1.264l0.884-2.155L267.779,350.781z"/>
<path d="M287.437,354.177v-2.128h1.13l0.134,0.196l1.31,1.932h1.264h0.446l-1.624-2.374c0.845-0.313,1.424-0.988,1.424-2.061
	c0-0.646-0.199-1.169-0.569-1.54c-0.438-0.436-1.092-0.674-1.938-0.674h-1.775h-1.264v6.648h1.264H287.437z M287.437,348.849h1.264
	h0.189c0.712,0,1.148,0.322,1.148,0.949c0,0.579-0.408,0.959-1.12,0.959H288.7h-1.264V348.849z"/>
<polygon points="308.791,346.629 309.604,345.867 309.349,345.756 308.36,345.325 307.287,347.007 308.389,347.007 "/>
<polygon points="308.626,354.177 308.626,347.529 308.428,347.529 307.164,347.529 307.164,354.177 308.428,354.177 "/>
<path d="M327.493,352.873c-0.151,0.063-0.33,0.107-0.557,0.107c-0.423,0-0.805-0.104-1.164-0.276
	c-0.284-0.138-0.557-0.312-0.82-0.53l-0.865,1.035c0.799,0.712,1.814,1.062,2.821,1.062c0.218,0,0.422-0.021,0.619-0.056
	c1.094-0.188,1.821-0.885,1.821-2.004c0-1.178-0.76-1.662-2.108-2.014c-1.149-0.296-1.434-0.437-1.434-0.874
	c0-0.343,0.294-0.598,0.854-0.598c0.233,0,0.471,0.051,0.71,0.131c0.336,0.112,0.675,0.286,1.019,0.524l0.341-0.495l0.419-0.607
	c-0.507-0.406-1.1-0.679-1.774-0.789c-0.223-0.036-0.454-0.056-0.695-0.056c-1.357,0-2.326,0.797-2.326,2.004
	c0,1.338,0.864,1.709,2.203,2.052c1.111,0.284,1.339,0.475,1.339,0.845C327.896,352.589,327.742,352.767,327.493,352.873"/>
</svg>
